HIERARCHY
ROOT Hips
{
	OFFSET 0.000000 0.000000 0.000000 
	CHANNELS 6 Xposition Yposition Zposition Zrotation Yrotation Xrotation
	JOINT LeftUpLeg
	{
		OFFSET 1.363060 -1.794630 0.839290 
		CHANNELS 3 Zrotation Yrotation Xrotation
		JOINT LeftLeg
		{
			OFFSET 2.448110 -6.726130 0.000000 
			CHANNELS 3 Zrotation Yrotation Xrotation
			JOINT LeftFoot
			{
				OFFSET 2.562200 -7.039590 0.000000 
				CHANNELS 3 Zrotation Yrotation Xrotation
				JOINT LeftToeBase
				{
					OFFSET 0.157640 -0.433110 2.322550 
					CHANNELS 3 Zrotation Yrotation Xrotation
					End Site
					{
						OFFSET 0.000000 0.000000 0.000000 
					}
				}
			}
		}
	}
	JOINT RightUpLeg
	{
		OFFSET -1.305520 -1.794630 0.839290 
		CHANNELS 3 Zrotation Yrotation Xrotation
		JOINT RightLeg
		{
			OFFSET -2.542530 -6.985550 0.000000 
			CHANNELS 3 Zrotation Yrotation Xrotation
			JOINT RightFoot
			{
				OFFSET -2.568260 -7.056230 0.000000 
				CHANNELS 3 Zrotation Yrotation Xrotation
				JOINT RightToeBase
				{
					OFFSET -0.164730 -0.452590 2.363150 
					CHANNELS 3 Zrotation Yrotation Xrotation
					End Site
					{
						OFFSET 0.000000 0.000000 0.000000 
					}
				}
			}
		}
	}
	JOINT Spine
	{
		OFFSET 0.028270 2.035590 -0.193380 
		CHANNELS 3 Zrotation Yrotation Xrotation
		JOINT Spine1
		{
			OFFSET 0.056720 2.048850 -0.042750 
			CHANNELS 3 Zrotation Yrotation Xrotation
			JOINT Neck1
			{
				OFFSET -0.054170 1.746240 0.172020 
				CHANNELS 3 Zrotation Yrotation Xrotation
				JOINT Head
				{
					OFFSET 0.104070 1.761360 -0.123970 
					CHANNELS 3 Zrotation Yrotation Xrotation
					End Site
					{
						OFFSET 0.000000 0.000000 0.000000 
					}
				}
			}
			JOINT LeftArm
			{
				OFFSET 3.362410 1.200890 -0.311210 
				CHANNELS 3 Zrotation Yrotation Xrotation
				JOINT LeftForeArm
				{
					OFFSET 4.983000 -0.000000 -0.000000 
					CHANNELS 3 Zrotation Yrotation Xrotation
					JOINT LeftHand
					{
						OFFSET 3.483560 -0.000000 -0.000000 
						CHANNELS 3 Zrotation Yrotation Xrotation
						JOINT LeftHandIndex1
						{
							OFFSET 0.715260 -0.000000 -0.000000 
							CHANNELS 3 Zrotation Yrotation Xrotation
							End Site
							{
								OFFSET 0.000000 0.000000 0.000000 
							}
						}
					}
				}
			}
			JOINT RightArm
			{
				OFFSET -3.136600 1.374050 -0.404650 
				CHANNELS 3 Zrotation Yrotation Xrotation
				JOINT RightForeArm
				{
					OFFSET -5.241900 -0.000000 -0.000000 
					CHANNELS 3 Zrotation Yrotation Xrotation
					JOINT RightHand
					{
						OFFSET -3.444170 -0.000000 -0.000000 
						CHANNELS 3 Zrotation Yrotation Xrotation
						JOINT RightHandIndex1
						{
							OFFSET -0.622530 -0.000000 -0.000000 
							CHANNELS 3 Zrotation Yrotation Xrotation
							End Site
							{
								OFFSET 0.000000 0.000000 0.000000 
							}
						}
					}
				}
			}
		}
	}
}
MOTION
Frames: 10
Frame Time: 0.041667
12.375870 17.784719 35.835052 -179.961369 -32.064977 -169.037238 -10.884453 -14.972642 -6.456449 -0.520876 5.455915 15.637762 1.355931 -11.785920 2.272390 0.022000 -0.957500 -2.631800 11.760333 -5.163599 -30.384380 0.233078 -9.390885 23.973728 0.997019 -6.209739 -0.883713 -0.890700 -6.015600 16.829600 0.695151 5.938578 -3.234701 -1.451453 3.070527 7.647605 6.444714 11.727832 9.150894 1.471600 6.190200 -0.613800 -97.821291 -8.371909 17.276656 10.241075 -17.976764 -1.958896 0.494273 -0.618580 8.189738 -7.125000 0.000000 0.000000 94.548701 -3.933108 -2.118736 -21.850857 33.745621 -6.042435 0.972968 -1.418644 24.031422 7.125000 0.000000 0.000000 
12.330181 17.776644 35.937160 -179.849174 -31.620830 -169.266600 -11.095959 -14.301323 -6.977250 -0.443890 5.670751 16.230336 1.380521 -12.444038 2.440842 0.005200 -0.464100 -1.275300 11.321820 -4.268042 -29.947480 0.300570 -9.290047 23.684204 0.905669 -5.944208 -1.530279 -1.978500 -8.821200 25.237700 0.750157 6.017304 -3.191309 -1.202583 3.114328 7.694701 6.217415 11.578487 8.858378 1.254300 6.092500 -0.812400 -97.625201 -5.587127 26.574240 8.957430 -15.540839 -1.324563 0.022312 -0.409678 30.571132 -7.125000 0.000000 0.000000 94.578875 -4.093309 -2.945531 -20.881274 32.734222 -5.683579 0.860363 -1.578674 24.368632 7.125000 0.000000 0.000000 
12.282169 17.770891 36.047897 179.961031 -31.134711 -169.229486 -11.608694 -13.861111 -7.347088 -0.422954 5.735008 16.398409 1.371837 -12.686570 2.598897 0.000500 -0.143800 -0.395000 10.679643 -3.530932 -29.775724 0.326198 -9.250671 23.554736 0.767391 -5.562249 -2.130014 -3.138900 -10.916600 31.999000 0.710767 6.152103 -3.152802 -1.264681 3.181041 7.874149 6.509936 11.646875 9.106093 1.486900 6.145400 -0.700700 -97.345880 -5.558559 26.227915 8.971290 -15.595446 -1.338462 0.038634 -0.424394 31.763501 -7.125000 0.000000 0.000000 94.987185 -4.140475 -4.008114 -20.141727 32.004402 -5.466928 0.806067 -1.730654 25.467658 7.125000 0.000000 0.000000 
12.226414 17.766023 36.159962 179.567941 -30.580886 -169.189351 -12.381535 -13.400103 -7.567155 -0.404042 5.805918 16.561761 1.361620 -12.837210 2.457371 0.002400 -0.316700 -0.870100 9.998131 -3.221895 -29.679295 0.337238 -9.188073 23.374944 0.732653 -5.478177 -2.081722 -3.724500 -11.784500 34.974000 0.730019 6.260103 -3.100097 -0.787309 3.199327 8.064512 6.561598 11.747726 9.351577 1.605000 6.216200 -0.611400 -97.466197 -5.438541 26.663424 9.026956 -15.728871 -1.357793 0.038235 -0.435891 31.397383 -7.125000 0.000000 0.000000 94.939768 -4.287902 -5.034207 -19.523334 31.318357 -5.415357 0.679763 -1.954391 26.025127 7.125000 0.000000 0.000000 
12.166122 17.762262 36.259968 179.323229 -29.973783 -169.457911 -13.155706 -12.748331 -7.541051 -0.386991 5.837594 16.657427 1.342963 -12.966471 2.459111 0.000400 -0.132500 -0.363900 9.367129 -2.871754 -29.404488 0.342181 -9.140228 23.238928 0.711420 -5.429258 -2.023772 -4.142400 -12.347500 36.972600 0.420357 6.766622 -3.158458 -2.802862 3.564156 7.458607 6.924756 11.522635 9.668331 1.678200 6.108100 -0.455700 -95.572268 -4.719801 28.764859 9.230508 -15.896050 -1.394353 0.037080 -0.451453 29.154785 -7.125000 0.000000 0.000000 97.150742 -5.036338 -6.482365 -19.009820 31.067491 -5.257422 0.715199 -2.092472 26.833901 7.125000 0.000000 0.000000 
12.110809 17.765581 36.351787 179.115787 -29.549015 -169.553053 -13.728245 -12.234985 -7.700649 -0.369899 5.894809 16.789644 1.321089 -13.130409 2.756070 0.005100 0.462800 1.271600 8.849436 -2.481730 -29.142198 0.358207 -9.080011 23.063496 0.818325 -5.734122 -2.105581 -4.307500 -12.558700 37.738300 0.550482 6.561125 -3.056939 -1.842137 3.405361 7.908664 6.512625 11.688939 9.374981 1.430300 6.176000 -0.664900 -96.018028 -4.795298 26.944799 8.914874 -15.578921 -1.330588 0.035154 -0.406801 30.222925 -7.125000 0.000000 0.000000 96.445605 -5.035678 -6.494436 -18.145134 30.074058 -4.932073 0.710622 -2.031691 27.125628 7.125000 0.000000 0.000000 
12.062466 17.767683 36.445156 179.072889 -29.339448 -169.587441 -14.068442 -11.812157 -8.123339 -0.344725 5.966060 16.983263 1.309483 -13.334674 3.030041 0.008100 0.579400 1.592100 8.563861 -2.395968 -29.131080 0.384586 -8.999665 22.825805 0.975441 -6.173217 -1.959795 -4.262300 -12.501500 37.529800 0.528093 6.397637 -3.060459 -2.099804 3.344635 8.048190 6.911089 11.983530 9.975758 1.819400 6.365700 -0.380100 -95.517872 -4.675196 25.626629 8.712407 -15.313483 -1.286508 0.039713 -0.376770 31.317720 -7.125000 0.000000 0.000000 96.831498 -5.217843 -6.974571 -17.384366 29.360720 -4.671282 0.711233 -2.047118 27.521797 7.125000 0.000000 0.000000 
12.015228 17.761709 36.534763 179.058168 -29.081944 -169.695763 -14.385340 -11.316563 -8.498142 -0.314316 6.049575 17.211021 1.302048 -13.531665 3.194419 0.012400 0.718200 1.973700 8.331970 -2.366495 -29.113341 0.412230 -8.916788 22.588380 1.047905 -6.378735 -1.756587 -4.311700 -12.564000 37.757500 0.518693 6.263706 -3.049978 -2.425268 3.302178 8.015031 6.627908 11.961640 9.671241 1.551600 6.329700 -0.593100 -95.113266 -4.505775 25.186623 8.641282 -15.184363 -1.261648 0.031240 -0.375917 31.640788 -7.125000 0.000000 0.000000 97.245413 -5.504591 -7.774414 -16.682638 28.656415 -4.428205 0.700306 -2.053597 28.385363 7.125000 0.000000 0.000000 
11.971531 17.757395 36.611095 178.892957 -28.832564 -169.751958 -14.825200 -10.872822 -8.779568 -0.280203 6.142223 17.460089 1.290424 -13.781179 3.368241 0.028000 1.080400 2.970100 7.866247 -1.984434 -28.887009 0.435294 -8.842598 22.374128 1.153065 -6.669680 -1.873278 -4.431200 -12.713200 38.304000 0.503262 6.154822 -3.035294 -2.492019 3.257125 8.227880 7.214365 12.202141 10.427157 2.073600 6.500700 -0.242200 -94.822851 -4.459108 24.327318 8.512939 -14.969163 -1.220463 0.018391 -0.372803 32.416189 -7.125000 0.000000 0.000000 97.522251 -5.546631 -8.869953 -15.755467 27.677742 -4.122156 0.678742 -2.047184 29.490469 7.125000 0.000000 0.000000 
11.931484 17.753855 36.675591 178.569415 -28.555689 -169.746689 -15.397803 -10.499875 -8.949474 -0.246665 6.235086 17.701014 1.277649 -14.006516 3.405938 0.025100 1.021900 2.809100 7.209655 -1.335582 -28.514515 0.450460 -8.784167 22.202791 1.268820 -6.984485 -2.260389 -4.589100 -12.905500 39.015900 0.514887 6.060942 -3.005886 -2.306264 3.196115 8.272838 6.992569 12.187888 9.870788 1.817700 6.455300 -0.614900 -94.714201 -4.380848 22.865492 8.250258 -14.588712 -1.151343 0.004690 -0.357164 33.607940 -7.125000 0.000000 0.000000 97.640896 -5.524375 -10.343438 -14.702166 26.430284 -3.777746 0.643566 -2.019031 30.720968 7.125000 0.000000 0.000000 
